<svg width="22" height="22" viewBox="0 0 22 22" fill="none" xmlns="http://www.w3.org/2000/svg">
<path d="M2 9.98706V14.4931C2 17.3241 2 18.7401 2.879 19.6201C3.757 20.5001 5.172 20.5001 8 20.5001H14C16.828 20.5001 18.243 20.5001 19.121 19.6201C19.999 18.7401 20 17.3241 20 14.4921V9.98706" stroke="#212121" stroke-width="1.5" stroke-linecap="round" stroke-linejoin="round"/>
<path d="M13.9998 15.9771C13.3158 16.5841 12.2268 16.9771 10.9998 16.9771C9.77285 16.9771 8.68385 16.5841 7.99985 15.9771M16.7958 1.50306L5.14985 1.53206C3.41185 1.44206 2.96585 2.78206 2.96585 3.43806C2.96585 4.02406 2.89085 4.87806 1.82585 6.48306C0.759848 8.08806 0.839848 8.56506 1.44085 9.67706C1.93885 10.5991 3.20685 10.9591 3.86885 11.0201C5.96885 11.0681 6.99085 9.25206 6.99085 7.97506C8.03285 11.1821 10.9958 11.1821 12.3158 10.8151C13.6378 10.4481 14.7718 9.13306 15.0388 7.97506C15.1948 9.41506 15.6688 10.2541 17.0658 10.8311C18.5148 11.4281 19.7598 10.5151 20.3848 9.92906C21.0098 9.34406 21.4108 8.04406 20.2968 6.61506C19.5288 5.63006 19.2078 4.70206 19.1028 3.74006C19.0428 3.18206 18.9888 2.58306 18.5968 2.20206C18.0248 1.64506 17.2028 1.47706 16.7958 1.50306Z" stroke="#212121" stroke-width="1.5" stroke-linecap="round" stroke-linejoin="round"/>
</svg>
